<?xml version="1.0" standalone="no"?>
<!DOCTYPE svg PUBLIC "-//W3C//DTD SVG 20010904//EN"
 "http://www.w3.org/TR/2001/REC-SVG-20010904/DTD/svg10.dtd">
<svg version="1.0" xmlns="http://www.w3.org/2000/svg"
 width="90.000000pt" height="90.000000pt" viewBox="0 0 90.000000 90.000000"
 preserveAspectRatio="xMidYMid meet">
<metadata>
Created by potrace 1.11, written by Peter Selinger 2001-2013
</metadata>
<g transform="translate(0.000000,90.000000) scale(0.100000,-0.100000)"
fill="#000000" stroke="none">
<path d="M120 845 l-115 -43 1 -78 c2 -93 12 -390 19 -554 4 -74 10 -117 18
-122 7 -4 41 -8 77 -9 36 0 90 -2 120 -4 30 -1 132 -6 225 -9 94 -4 199 -9
235 -11 36 -2 70 -1 75 3 6 4 36 50 66 102 l56 95 -1 330 -1 330 -30 1 c-16 1
-165 4 -330 7 l-300 5 -115 -43z"/>
</g>
</svg>
